<?xml version="1.0" encoding="UTF-8"?>
<svg width="27mm" height="30mm" version="1.1" viewBox="0 0 27 30" xmlns="http://www.w3.org/2000/svg" xmlns:xlink="http://www.w3.org/1999/xlink">
   <defs>
      <filter id="a" x="-.1200001" y="-.4499983" width="1.24" height="1.899997" color-interpolation-filters="sRGB">
         <feGaussianBlur result="blur" stdDeviation="3"/>
      </filter>
      <filter id="b" x="-.04" y="-.15" width="1.08" height="1.3" color-interpolation-filters="sRGB">
         <feGaussianBlur result="blur" stdDeviation="1 1"/>
      </filter>
      <clipPath id="c">
         <rect x="218.723" y="119.8359" width="60" height="16" rx="2" ry="2" fill="#606060" stop-color="#000000" stroke-width=".148932" style="-inkscape-stroke:none"/>
      </clipPath>
      <clipPath id="d">
         <rect y="-3" width="27" height="30" fill="#181818" stop-color="#000000" stroke-width=".151145" style="-inkscape-stroke:none"/>
      </clipPath>
   </defs>
   <g>
      <g transform="translate(0,3)" clip-path="url(#d)">
         <rect x="-41" y="3" width="60" height="16" rx="2" ry="2" fill="#020202" fill-opacity=".7" filter="url(#a)" stop-color="#000000" stroke-width=".154904" style="-inkscape-stroke:none;font-variation-settings:normal"/>
         <rect x="-39" y="5" width="60" height="16" rx="2" ry="2" fill="#ffffff" fill-opacity=".202825" filter="url(#b)" stop-color="#000000" stroke-width=".151145" style="-inkscape-stroke:none;font-variation-settings:normal"/>
         <g transform="translate(-258.723 -115.8359)" clip-path="url(#c)">
            <rect x="218.723" y="119.8359" width="60" height="16" rx="0" ry="0" fill="#262626" stop-color="#000000" stroke-width=".148932" style="-inkscape-stroke:none"/>
            <path d="m218.723 119.8359v16.00006h1.99988v-13.00024c0-.554.44594-.99994.99994-.99994h54.00032c.554 0 .99994.44594.99994.99994v13.00024h1.99988v-16.00006z" fill="#000000" fill-opacity=".998373" filter="url(#a)" stop-color="#000000" stroke-width=".154904" style="-inkscape-stroke:none;font-variation-settings:normal"/>
            <rect x="218.723" y="137.0109" width="60" height="2" rx="0" ry="0" fill="#020202" filter="url(#a)" stop-color="#000000" stroke-width=".154904" style="-inkscape-stroke:none;font-variation-settings:normal"/>
         </g>
      </g>
   </g>
</svg>
