<?xml version="1.0" encoding="UTF-8"?>
<svg width="30mm" height="24mm" version="1.1" viewBox="0 0 30 24" xmlns="http://www.w3.org/2000/svg" xmlns:xlink="http://www.w3.org/1999/xlink">
   <defs>
      <filter id="g" x="-.03827618" y="-.05053776" width="1.076552" height="1.101076" color-interpolation-filters="sRGB">
         <feGaussianBlur result="blur" stdDeviation="0.36 0.37"/>
      </filter>
      <filter id="f" x="-.03827443" y="-.05053776" width="1.076549" height="1.101076" color-interpolation-filters="sRGB">
         <feGaussianBlur result="blur" stdDeviation="0.36 0.37"/>
      </filter>
      <linearGradient id="d" x1="-143.9427" x2="-105.7356" y1="-52.29361" y2="-2.126861" gradientTransform="matrix(.2645833 0 0 .2645833 -18.10402 -2.216089)" gradientUnits="userSpaceOnUse">
         <stop stop-color="#5e5c70" offset="0"/>
         <stop stop-color="#808080" stop-opacity="0" offset="1"/>
      </linearGradient>
      <linearGradient id="c" x1="-11.91663" x2="-29.62024" y1="11.94691" y2="-13.15147" gradientTransform="translate(-20.03481 -7.9589)" gradientUnits="userSpaceOnUse">
         <stop stop-color="#201f23" offset="0"/>
         <stop stop-color="#3b3b3b" stop-opacity="0" offset="1"/>
      </linearGradient>
      <linearGradient id="b" x1="16.5003" x2="39.05489" y1="10.41463" y2="20.35459" gradientTransform="matrix(.932144 0 0 .932144 -69.48952 -19.40188)" gradientUnits="userSpaceOnUse">
         <stop stop-color="#464750" offset="0"/>
         <stop stop-color="#3e3e46" offset="1"/>
      </linearGradient>
      <linearGradient id="a" x1=".5258482" x2="24.73994" y1="5.552268" y2="15.80786" gradientTransform="matrix(.9368067 0 0 .9368067 -33.5231 6.743911)" gradientUnits="userSpaceOnUse">
         <stop stop-color="#3f3e44" offset="0"/>
         <stop stop-color="#323135" offset="1"/>
      </linearGradient>
      <filter id="e" x="-.02085694" y="-.02607" width="1.041714" height="1.05214" color-interpolation-filters="sRGB">
         <feGaussianBlur result="blur" stdDeviation="0.15 0.15"/>
      </filter>
   </defs>
   <g>
      <g transform="translate(58.65625 17.29167)">
         <path transform="matrix(.2645833 0 0 .2645833 -58.65625 -17.29167)" d="m19.51562 9.947266c-3.923085 0-7.082031 3.158946-7.082031 7.082031v56.65039c0 3.923081 3.158946 7.082031 7.082031 7.082031h74.35547c3.923081 0 7.080076-3.15895 7.080076-7.082031v-56.65039c0-3.923085-3.156995-7.082031-7.080076-7.082031h-74.35547z" fill="url(#a)" stop-color="#000000" style="-inkscape-stroke:none;font-variation-settings:normal"/>
         <path d="m-51.17336-12.19615c-.616738 0-1.11311.494337-1.11311 1.107942v11.59309c0 .613606.496372 1.107943 1.11311 1.107943h15.03474c.616738 0 1.112594-.494337 1.112594-1.107943v-11.59309c0-.613605-.495856-1.107942-1.112594-1.107942z" fill="url(#b)" filter="url(#e)" stop-color="#000000" style="-inkscape-stroke:none"/>
         <path d="m-53.30652-14.51921c-1.037984 0-1.873271.835287-1.873271 1.87327v14.98927c0 .25132.05109.489908.140044.708484l1.03973-.800468c-.0079-.05502-.01705-.109722-.01705-.166915v-14.47147c0-.665773.555398-1.201994 1.244886-1.201994h18.60455c.207113 0 .399013.05326.570508.13901l.990121-.761711c-.29473-.19306-.64608-.307474-1.026294-.307474z" fill="url(#d)" filter="url(#g)" stop-color="#000000" style="-inkscape-stroke:none;font-variation-settings:normal"/>
         <path d="m-32.0862-13.49494-1.040247.800468c.0079.05503.01757.109716.01757.166915v14.47147c0 .665771-.555397 1.201992-1.244885 1.201992h-18.60455c-.207299 0-.399422-.05312-.571027-.139009l-.990637.762227c.294804.193209.646957.306959 1.02733.306959h19.67322c1.037982 0 1.87327-.83529 1.87327-1.873271v-14.98927c0-.251331-.05108-.4899-.140042-.708484z" fill="url(#c)" filter="url(#f)" stop-color="#000000" style="-inkscape-stroke:none;font-variation-settings:normal"/>
      </g>
   </g>
</svg>
